<?xml version="1.0" encoding="UTF-8"?>
<svg xmlns="http://www.w3.org/2000/svg" version="1.1" width="500" height="500" viewBox="0 0 500 500"><rect x="0" y="0" width="500" height="500" fill="#ffffff"/><g transform="scale(17.241)"><g transform="translate(0,0)"><path fill-rule="evenodd" d="M9 0L9 1L8 1L8 2L9 2L9 3L8 3L8 4L10 4L10 7L11 7L11 4L12 4L12 5L13 5L13 6L12 6L12 9L14 9L14 10L11 10L11 11L10 11L10 9L11 9L11 8L6 8L6 9L7 9L7 10L4 10L4 9L5 9L5 8L0 8L0 10L2 10L2 11L0 11L0 12L1 12L1 13L0 13L0 16L1 16L1 17L0 17L0 21L1 21L1 17L2 17L2 15L3 15L3 14L4 14L4 16L3 16L3 17L4 17L4 18L3 18L3 19L2 19L2 20L3 20L3 19L4 19L4 18L5 18L5 17L7 17L7 18L6 18L6 19L5 19L5 20L4 20L4 21L5 21L5 20L6 20L6 21L8 21L8 23L9 23L9 21L10 21L10 24L8 24L8 29L9 29L9 28L10 28L10 27L11 27L11 28L12 28L12 29L13 29L13 27L14 27L14 29L20 29L20 28L21 28L21 29L23 29L23 28L21 28L21 27L24 27L24 25L25 25L25 23L26 23L26 25L29 25L29 23L27 23L27 22L28 22L28 20L29 20L29 17L28 17L28 18L26 18L26 17L24 17L24 18L23 18L23 16L25 16L25 15L27 15L27 16L29 16L29 14L28 14L28 13L27 13L27 14L26 14L26 13L24 13L24 12L26 12L26 11L27 11L27 10L28 10L28 8L27 8L27 10L26 10L26 8L25 8L25 11L21 11L21 9L22 9L22 10L24 10L24 8L23 8L23 9L22 9L22 8L21 8L21 6L20 6L20 7L19 7L19 6L18 6L18 5L17 5L17 4L16 4L16 3L18 3L18 4L19 4L19 5L20 5L20 4L19 4L19 3L20 3L20 1L21 1L21 0L18 0L18 1L17 1L17 2L16 2L16 0L14 0L14 1L11 1L11 2L10 2L10 0ZM18 1L18 2L19 2L19 1ZM12 2L12 4L13 4L13 5L14 5L14 4L15 4L15 3L16 3L16 2L15 2L15 3L13 3L13 2ZM10 3L10 4L11 4L11 3ZM8 5L8 7L9 7L9 5ZM16 5L16 6L15 6L15 8L14 8L14 6L13 6L13 8L14 8L14 9L15 9L15 8L16 8L16 6L17 6L17 7L18 7L18 6L17 6L17 5ZM18 8L18 9L16 9L16 10L14 10L14 12L13 12L13 11L12 11L12 13L11 13L11 12L10 12L10 13L8 13L8 14L7 14L7 13L6 13L6 12L7 12L7 11L6 11L6 12L2 12L2 13L1 13L1 14L2 14L2 13L5 13L5 14L7 14L7 15L5 15L5 16L7 16L7 17L8 17L8 19L6 19L6 20L8 20L8 19L10 19L10 17L8 17L8 16L10 16L10 15L11 15L11 18L14 18L14 19L12 19L12 20L13 20L13 22L14 22L14 23L13 23L13 24L12 24L12 21L11 21L11 20L10 20L10 21L11 21L11 25L12 25L12 26L14 26L14 27L15 27L15 28L17 28L17 26L18 26L18 27L19 27L19 26L20 26L20 27L21 27L21 26L22 26L22 25L21 25L21 26L20 26L20 25L19 25L19 24L20 24L20 22L19 22L19 21L20 21L20 20L18 20L18 21L17 21L17 20L16 20L16 19L17 19L17 18L18 18L18 19L20 19L20 17L21 17L21 18L22 18L22 19L23 19L23 18L22 18L22 17L21 17L21 16L19 16L19 17L17 17L17 18L16 18L16 17L15 17L15 16L16 16L16 15L17 15L17 16L18 16L18 15L19 15L19 14L20 14L20 15L25 15L25 14L24 14L24 13L23 13L23 14L22 14L22 12L18 12L18 13L17 13L17 12L16 12L16 11L17 11L17 10L19 10L19 11L20 11L20 8ZM2 9L2 10L3 10L3 9ZM8 11L8 12L9 12L9 11ZM28 11L28 12L29 12L29 11ZM14 12L14 14L13 14L13 13L12 13L12 14L13 14L13 15L12 15L12 17L14 17L14 16L15 16L15 15L14 15L14 14L17 14L17 15L18 15L18 14L17 14L17 13L16 13L16 12ZM10 13L10 14L11 14L11 13ZM7 15L7 16L8 16L8 15ZM13 15L13 16L14 16L14 15ZM24 18L24 19L25 19L25 20L27 20L27 19L25 19L25 18ZM14 19L14 20L15 20L15 22L16 22L16 20L15 20L15 19ZM21 21L21 24L24 24L24 21ZM25 21L25 22L27 22L27 21ZM17 22L17 23L16 23L16 24L15 24L15 23L14 23L14 24L13 24L13 25L14 25L14 24L15 24L15 26L17 26L17 25L18 25L18 24L19 24L19 23L18 23L18 22ZM22 22L22 23L23 23L23 22ZM26 26L26 27L25 27L25 28L24 28L24 29L27 29L27 27L28 27L28 28L29 28L29 27L28 27L28 26ZM0 0L7 0L7 7L0 7ZM1 1L1 6L6 6L6 1ZM2 2L5 2L5 5L2 5ZM22 0L29 0L29 7L22 7ZM23 1L23 6L28 6L28 1ZM24 2L27 2L27 5L24 5ZM0 22L7 22L7 29L0 29ZM1 23L1 28L6 28L6 23ZM2 24L5 24L5 27L2 27Z" fill="#000000"/></g></g></svg>
